PathFileType	4	(X/Y/Z)	C:/Users/beibeiliu/ov580/test_trc/User3\sequence.12_training_dense_left.trc
DataRate	CameraRate	NumFrames	NumMarkers	Units	OrigDataRate	OrigDataStartFrame	OrigNumFrames
120	120	15	19	mm	120	51	101
Frame#	Time	ThumbCMC			ThumbMCP			ThumbIP			ThumbTip			IndexMCP			IndexPIP			IndexTip			MiddleMCP			MiddlePIP			MiddleTip			RingMCP			RingPIP			RingTip			PinkyMCP			PinkyPIP			PinkyTip			BackHand1			BackHand2			BackHand3	
		X0	Y0	Z0	X1	Y1	Z1	X2	Y2	Z2	X3	Y3	Z3	X4	Y4	Z4	X5	Y5	Z5	X6	Y6	Z6	X7	Y7	Z7	X8	Y8	Z8	X9	Y9	Z9	X10	Y10	Z10	X11	Y11	Z11	X12	Y12	Z12	X13	Y13	Z13	X14	Y14	Z14	X15	Y15	Z15	X16	Y16	Z16	X17	Y17	Z17	X18	Y18	Z18	
50	0.416667	-240.654	-79.5741	11.979	-240.944	-66.0675	-22.0712	-231.686	-57.6488	-48.8953	-209.219	-54.604	-66.7014	-224.974	-120.86	-52.6662	-218.692	-121.908	-83.7813	-219.188	-115.36	-106.756	-198.36	-118.37	-58.4953	-193.916	-94.0955	-81.8991	-194.07	-62.1082	-62.2576	-181.884	-124.647	-44.4217	-172.735	-125.46	-74.5477	-168.014	-115.489	-101.963	-162.016	-118.777	-25.8377	-150.17	-127.118	-41.9729	-143.1	-132.413	-63.9302	-187.705	-120.995	8.74858	-188.621	-115.852	34.6764	-219.839	-117.181	15.8405	
51	0.425	-243.934	-82.4815	15.7063	-248.127	-68.7654	-18.2459	-237.328	-64.6236	-46.4986	-213.81	-64.7217	-66.1429	-230.624	-130.853	-48.0482	-231.113	-132.58	-76.4373	-228.507	-129.407	-103.502	-207.097	-127.319	-53.4966	-206.587	-107.926	-79.7367	-202.087	-68.4128	-59.5497	-190.947	-132.708	-42.0242	-185.642	-135.863	-70.611	-177.208	-129.149	-95.1243	-166.269	-123.962	-20.5424	-158.177	-136.292	-43.4307	-153.208	-139.77	-65.2269	-192.908	-125.109	10.5855	-189.292	-116.366	38.7355	-225.616	-121.166	20.7477	
52	0.433333	-244.926	-88.4941	17.0182	-250.785	-75.737	-12.8	-244.729	-72.8801	-50.176	-221.048	-72.901	-62.9208	-235.071	-137.09	-40.9528	-237.278	-140.798	-69.0865	-236.042	-138.266	-96.8072	-211.311	-135.719	-52.1015	-213.173	-116.875	-76.5646	-214.215	-78.3106	-61.3578	-192.207	-137.336	-35.9894	-192.633	-142.749	-64.8779	-186.174	-137.967	-92.9145	-172.244	-129.485	-19.0799	-165.208	-142.014	-41.0624	-156.123	-149.077	-64.2224	-197.294	-127.67	13.1181	-192.529	-118.537	44.9495	-229.647	-124.261	23.8198	
53	0.441667	-252.559	-87.4965	22.4032	-257.679	-81.3613	-14.9211	-253.029	-79.3534	-46.8196	-230.859	-81.8358	-59.5765	-246.366	-143.366	-32.3888	-250.693	-149.146	-62.0527	-252.245	-148.159	-85.7486	-226.537	-143.865	-44.7577	-223.206	-124.639	-72.1233	-220.404	-88.3528	-59.3946	-208.113	-146.32	-31.9973	-203.031	-152.165	-57.2089	-202.102	-150.597	-83.8874	-185.32	-137.113	-14.2702	-179.133	-151.456	-34.8543	-171.987	-159.99	-55.92	-201.864	-131.795	23.1623	-200.524	-120.627	47.1666	-237.798	-125.471	29.9328	
54	0.45	-259.652	-86.1982	21.5466	-262.554	-80.0796	-9.91135	-261.198	-82.4338	-42.9859	-241.099	-90.2483	-57.6856	-265.657	-145.997	-23.2892	-273.026	-154.454	-54.147	-274.575	-153.456	-76.2745	-242.222	-151.453	-33.583	-242.463	-134.357	-64.2963	-233.502	-97.4464	-57.057	-223.38	-154.922	-22.0822	-223.699	-165.419	-50.6137	-225.873	-163.432	-76.3321	-202.369	-149.873	-9.3773	-199.588	-164.851	-26.9345	-197.707	-173.62	-50.0002	-217.218	-136.534	27.487	-209.348	-119.749	51.4234	-248.9	-120.001	36.9779	
55	0.458333	-261.738	-73.4032	23.0695	-266.423	-68.1832	-12.8215	-263.139	-73.956	-40.9468	-248.547	-86.5935	-61.6417	-286.483	-131.49	-16.5383	-296.141	-138.706	-46.1856	-298.758	-139.161	-72.2281	-270.237	-142.484	-27.6111	-266.561	-130.203	-60.6331	-245.193	-100.8	-58.3444	-252.657	-149.051	-14.9604	-255.968	-162.743	-46.3126	-256.285	-161.784	-71.0732	-226.349	-150.814	-3.22527	-231.382	-165.912	-19.3031	-230.218	-178.915	-47.0431	-238.894	-129.375	30.7835	-229.016	-116.896	52.8224	-261.808	-108.174	43.6542	
56	0.466667	-264.964	-55.4743	21.7869	-265.891	-48.7969	-12.9551	-265.527	-54.4607	-43.6336	-254.496	-72.0181	-60.9223	-308.715	-103.306	-16.4196	-319.087	-105.799	-43.3999	-321.708	-105.744	-68.113	-295.156	-120.949	-26.6738	-284.951	-112.382	-58.2626	-254.004	-90.0629	-56.8046	-279.312	-132.437	-12.0115	-288.423	-144.038	-42.1719	-290.598	-142.187	-69.9206	-255.293	-137.429	0.30199	-266.261	-153.504	-14.9658	-271.706	-166.554	-40.7235	-259.496	-122.114	30.8362	-242.849	-109.452	57.3836	-275.677	-88.1019	40.495	
57	0.475	-256.597	-39.0375	25.4279	-257.087	-33.2454	-8.8851	-259.899	-40.7412	-41.2308	-256.561	-57.7673	-56.9429	-318.435	-66.2617	-18.0132	-328.37	-67.753	-43.596	-330.968	-64.8811	-69.867	-310.868	-88.5366	-25.8922	-302.318	-84.0495	-55.7784	-261.094	-72.7896	-57.073	-305.149	-104.734	-14.0955	-316.818	-109.154	-38.7174	-316.816	-109.549	-64.3639	-281.433	-119.715	0.486117	-299.022	-131.699	-17.0388	-309.14	-138.219	-37.2853	-274.811	-100.891	32.0573	-260.54	-92.7038	56.1267	-279.692	-66.4617	43.7594	
58	0.483333	-241.188	-22.6282	25.0453	-240.976	-20.8616	-9.49824	-244.17	-21.2363	-38.7085	-252.165	-40.2096	-59.181	-308.281	-25.1649	-15.7733	-318.485	-20.417	-41.9972	-321.709	-17.7335	-72.4088	-310.795	-47.7941	-24.2352	-297.791	-46.5232	-58.5291	-260.037	-52.9417	-59.2602	-312.135	-66.5389	-11.8687	-326.42	-65.29	-39.1157	-328.725	-63.7614	-63.7161	-300.189	-88.8155	0.153174	-318.895	-88.3529	-15.0351	-333.087	-89.8398	-39.1938	-287.199	-69.7076	30.2616	-267.437	-75.9413	55.6469	-276.326	-41.8871	42.3694	
59	0.491667	-216.931	-15.6996	23.8344	-216.539	-12.4343	-11.2529	-222.033	-11.8869	-40.6027	-238.654	-25.2907	-58.3032	-277.747	18.2968	-20.9814	-281.681	28.3945	-46.9655	-286.25	28.9263	-68.1606	-292.339	-1.92974	-28.3492	-282.076	-4.20265	-58.2533	-254.943	-32.4705	-61.839	-303.838	-18.7384	-15.5396	-313.764	-9.99317	-40.6189	-320.049	-9.26906	-69.0189	-299.929	-46.3022	-0.94813	-322.61	-37.0049	-18.0114	-331.943	-32.4299	-36.1087	-281.393	-40.5351	32.1977	-268.555	-50.3578	54.1395	-255.299	-12.694	40.9627	
60	0.5	-198.764	-15.1274	19.8719	-197.318	-11.3777	-14.1729	-205.385	-7.98146	-48.0535	-224.857	-14.6621	-60.2853	-243.581	34.1709	-20.3405	-247.327	46.7363	-46.7339	-251.091	52.7099	-75.651	-261.077	26.269	-30.3795	-258.394	17.9721	-60.7862	-237.072	-19.0283	-65.7746	-281.385	13.4746	-16.8996	-291.558	23.9519	-41.2845	-294.007	29.5474	-66.5709	-287.601	-10.6867	-2.73632	-306.318	1.71338	-15.1373	-319.672	12.525	-31.8943	-266.346	-9.66847	26.0288	-255.599	-28.1185	51.6605	-236.409	-2.60508	36.0818	
61	0.508333	-184.451	-21.4848	10.9834	-180.695	-21.0999	-23.0475	-188.248	-18.9534	-53.3038	-212.323	-19.5129	-70.683	-218.824	34.0713	-31.4455	-219.3	45.4625	-59.872	-217.434	49.5134	-86.4065	-237.382	29.3553	-42.2819	-237.373	14.5527	-71.6678	-227.45	-22.8076	-70.2481	-260.427	23.1141	-24.1297	-264.861	37.3776	-49.0349	-272.181	40.1134	-77.4271	-274.524	5.11282	-7.37833	-285.995	22.2184	-20.7321	-294.617	34.1563	-38.3959	-249.762	0.899428	18.4618	-242.981	-15.6823	42.7147	-211.487	2.99697	30.0499	
62	0.516667	-172.895	-35.7805	5.24941	-170.624	-37.9813	-31.3395	-178.085	-39.6173	-57.0674	-202.846	-37.3491	-74.1681	-196.103	20.3804	-49.2449	-195.298	26.1984	-75.2156	-199.455	23.6293	-104.828	-217.364	16.1484	-54.0616	-218.235	-2.90361	-83.9423	-220.078	-39.3073	-75.9283	-238.977	18.1286	-39.3149	-240.914	27.835	-63.4471	-248.487	26.154	-94.3299	-254.638	3.37596	-17.2673	-265.903	20.8764	-31.6373	-275.91	34.5307	-50.9325	-228.59	-1.30852	12.959	-225.152	-14.41	35.3043	-195.824	-4.38936	17.71	
63	0.525	-164.59	-50.2442	2.18994	-160.518	-59.4796	-31.0021	-169.832	-62.768	-58.8458	-194.214	-61.674	-73.5548	-179.332	-3.84987	-60.1018	-179.49	-3.14274	-90.5579	-181.642	-10.1876	-116.718	-203.321	-4.45076	-66.5739	-205.716	-24.5176	-90.9949	-206.947	-62.4409	-77.6864	-220.526	0.0749375	-48.9316	-223.332	5.45462	-79.0223	-231.387	-0.0076603	-105.213	-236.683	-8.52495	-26.746	-248.97	8.328	-43.5516	-253.294	19.8938	-66.6278	-213.045	-9.39007	1.63506	-216.821	-16.7962	31.0579	-180.942	-13.1984	7.80715	
64	0.533333	-155.989	-60.3285	2.77947	-149.174	-77.996	-25.4584	-158.885	-83.6104	-59.868	-183.108	-82.6162	-68.7715	-165.005	-24.0444	-67.0166	-163.524	-28.8999	-96.3117	-163.406	-38.656	-117.064	-184.727	-23.3816	-71.434	-192.43	-49.2377	-93.8361	-198.236	-82.8882	-75.8988	-206.93	-14.3235	-58.5507	-208.123	-14.5346	-85.1516	-212.206	-24.8568	-112.813	-221.977	-19.329	-35.6959	-231.524	-4.78294	-54.2954	-241.026	2.69771	-74.8821	-201.814	-17.8665	-4.19708	-202.889	-23.6259	24.0683	-168.811	-26.5285	4.1806	
